<svg width="463" height="120" viewBox="0 0 463 120" fill="none" xmlns="http://www.w3.org/2000/svg">
<path d="M22.7185 83.96C19.0705 83.96 15.9025 82.904 13.2145 80.792C10.5905 78.616 8.5745 75.64 7.1665 71.864C5.8225 68.024 5.1505 63.672 5.1505 58.808C5.1505 53.944 5.8225 49.656 7.1665 45.944C8.5745 42.168 10.5585 39.224 13.1185 37.112C15.7425 34.936 18.8785 33.848 22.5265 33.848C25.0225 33.848 27.4225 34.424 29.7265 35.576C32.0305 36.664 34.1425 38.264 36.0625 40.376C37.9825 42.424 39.6145 44.888 40.9585 47.768L39.4225 49.112V15.8H48.6385V83H39.5185V68.408L41.0545 69.656C39.0705 74.2 36.4465 77.72 33.1825 80.216C29.9825 82.712 26.4945 83.96 22.7185 83.96ZM25.4065 75.8C27.4545 75.8 29.5985 75.096 31.8385 73.688C34.1425 72.28 36.0305 70.296 37.5025 67.736C39.0385 65.112 39.8065 62.168 39.8065 58.904C39.8065 55.576 39.0065 52.632 37.4065 50.072C35.8705 47.512 33.9505 45.528 31.6465 44.12C29.4065 42.712 27.2625 42.008 25.2145 42.008C23.0385 42.008 21.1185 42.648 19.4545 43.928C17.8545 45.208 16.6065 47.096 15.7105 49.592C14.8785 52.088 14.4625 55.16 14.4625 58.808C14.4625 64.312 15.4545 68.536 17.4385 71.48C19.4225 74.36 22.0785 75.8 25.4065 75.8ZM69.7412 35H78.8612V52.088L77.6133 51.032C78.9573 46.168 80.9732 42.104 83.6612 38.84C86.3493 35.512 89.5173 33.848 93.1653 33.848C96.4933 33.848 98.8933 35.224 100.365 37.976C101.837 40.664 102.573 44.184 102.573 48.536C102.573 48.728 102.573 49.048 102.573 49.496C102.573 49.88 102.541 50.36 102.477 50.936H94.6053V49.688C94.6053 47.448 94.1893 45.752 93.3573 44.6C92.5253 43.384 91.3093 42.776 89.7093 42.776C87.8532 42.776 86.0932 43.576 84.4292 45.176C82.7653 46.712 81.4213 48.824 80.3973 51.512C79.4373 54.2 78.9573 57.176 78.9573 60.44V83H69.7412V35ZM137.52 84.152C133.168 84.152 129.264 83.096 125.808 80.984C122.416 78.872 119.76 75.928 117.84 72.152C115.984 68.312 115.056 63.96 115.056 59.096C115.056 54.168 115.984 49.816 117.84 46.04C119.76 42.2 122.416 39.224 125.808 37.112C129.264 34.936 133.168 33.848 137.52 33.848C141.936 33.848 145.84 34.936 149.232 37.112C152.688 39.224 155.344 42.2 157.2 46.04C159.12 49.816 160.08 54.168 160.08 59.096C160.08 63.96 159.12 68.312 157.2 72.152C155.344 75.928 152.688 78.872 149.232 80.984C145.84 83.096 141.936 84.152 137.52 84.152ZM137.52 76.184C140.208 76.184 142.544 75.512 144.528 74.168C146.512 72.76 148.016 70.776 149.04 68.216C150.128 65.656 150.672 62.616 150.672 59.096C150.672 53.72 149.488 49.496 147.12 46.424C144.816 43.352 141.616 41.816 137.52 41.816C134.832 41.816 132.496 42.52 130.512 43.928C128.592 45.272 127.088 47.256 126 49.88C124.976 52.44 124.464 55.512 124.464 59.096C124.464 64.408 125.616 68.6 127.92 71.672C130.224 74.68 133.424 76.184 137.52 76.184ZM177.872 35H186.992V49.208L185.456 47.864C187.44 43.512 190.064 40.088 193.328 37.592C196.656 35.096 200.208 33.848 203.984 33.848C207.632 33.848 210.736 34.936 213.296 37.112C215.92 39.224 217.904 42.168 219.248 45.944C220.656 49.656 221.36 53.944 221.36 58.808C221.36 63.672 220.656 68.024 219.248 71.864C217.904 75.64 215.888 78.616 213.2 80.792C210.576 82.904 207.44 83.96 203.792 83.96C201.296 83.96 198.896 83.416 196.592 82.328C194.352 81.176 192.272 79.544 190.352 77.432C188.432 75.32 186.8 72.76 185.456 69.752L187.088 68.504V99.32H177.872V35ZM201.104 75.8C203.28 75.8 205.2 75.16 206.864 73.88C208.528 72.6 209.808 70.68 210.704 68.12C211.6 65.56 212.048 62.456 212.048 58.808C212.048 53.368 211.088 49.208 209.168 46.328C207.248 43.448 204.624 42.008 201.296 42.008C199.248 42.008 197.072 42.712 194.768 44.12C192.528 45.528 190.608 47.512 189.008 50.072C187.472 52.632 186.704 55.576 186.704 58.904C186.704 62.168 187.44 65.112 188.912 67.736C190.448 70.296 192.336 72.28 194.576 73.688C196.88 75.096 199.056 75.8 201.104 75.8ZM239.391 15.8H248.607V83H239.391V15.8ZM263.163 91.064H272.187C274.811 91.064 276.699 90.744 277.851 90.104C279.067 89.528 280.059 88.216 280.827 86.168L282.459 82.04L282.939 86.744L263.931 35H273.819L288.027 77.72H284.667L298.875 35H308.571L288.411 90.008C287.515 92.376 286.459 94.232 285.243 95.576C284.027 96.92 282.491 97.88 280.635 98.456C278.843 99.032 276.603 99.32 273.915 99.32H263.163V91.064Z" fill="white"/>
<path d="M345.995 117.308C343.41 114.836 342.233 109.333 343.533 106.802C365.213 69.258 365.528 50.4962 343.859 12.9723C342.233 9.99999 343.274 5.37256 345.736 2.65331C348.322 0.181273 353.179 -0.829741 356.996 0.777087C388.961 16.6667 425.658 35 456.928 50.4962C465.024 54.6667 465.024 65.3333 456.928 69.258C424.991 85.3333 390.963 102.333 356.461 119.162C352.521 120.893 348.458 119.78 345.995 117.308Z" fill="#10B981"/>
</svg>
