<svg width="565" height="120" viewBox="0 0 565 120" fill="none" xmlns="http://www.w3.org/2000/svg">
<path d="M117.005 2.69178C119.59 5.16383 120.767 10.6667 119.467 13.198C97.7865 50.742 97.4716 69.5038 119.141 107.028C120.767 110 119.726 114.627 117.264 117.347C114.678 119.819 109.821 120.83 106.004 119.223C74.0392 103.333 37.342 85 6.07191 69.5038C-2.02388 65.3333 -2.02406 54.6667 6.07191 50.742C38.0091 34.6667 72.0374 17.6667 106.539 0.83775C110.479 -0.892679 114.542 0.219743 117.005 2.69178Z" fill="#10B981"/>
<path d="M189.92 93.844C183.456 93.844 177.792 92.404 172.928 89.524C168.128 86.644 164.384 82.58 161.696 77.332C159.072 72.084 157.76 65.972 157.76 58.996C157.76 52.276 159.104 46.26 161.792 40.948C164.48 35.636 168.288 31.476 173.216 28.468C178.144 25.46 183.808 23.956 190.208 23.956C194.496 23.956 198.528 24.788 202.304 26.452C206.144 28.052 209.44 30.324 212.192 33.268C214.944 36.148 216.992 39.444 218.336 43.156L209.024 46.612C207.68 42.708 205.44 39.476 202.304 36.916C199.232 34.292 195.2 32.98 190.208 32.98C185.728 32.98 181.792 34.036 178.4 36.148C175.072 38.26 172.48 41.268 170.624 45.172C168.832 49.012 167.936 53.492 167.936 58.612C167.936 63.732 168.8 68.276 170.528 72.244C172.256 76.212 174.784 79.316 178.112 81.556C181.504 83.732 185.536 84.82 190.208 84.82C195.072 84.82 199.136 83.54 202.4 80.98C205.664 78.356 207.968 74.868 209.312 70.516L218.24 73.684C217.024 77.524 215.04 80.98 212.288 84.052C209.536 87.124 206.208 89.524 202.304 91.252C198.464 92.98 194.336 93.844 189.92 93.844ZM254.289 93.652C249.937 93.652 246.033 92.596 242.577 90.484C239.185 88.372 236.529 85.428 234.609 81.652C232.753 77.812 231.825 73.46 231.825 68.596C231.825 63.668 232.753 59.316 234.609 55.54C236.529 51.7 239.185 48.724 242.577 46.612C246.033 44.436 249.937 43.348 254.289 43.348C258.705 43.348 262.609 44.436 266.001 46.612C269.457 48.724 272.113 51.7 273.969 55.54C275.889 59.316 276.849 63.668 276.849 68.596C276.849 73.46 275.889 77.812 273.969 81.652C272.113 85.428 269.457 88.372 266.001 90.484C262.609 92.596 258.705 93.652 254.289 93.652ZM254.289 85.684C256.977 85.684 259.313 85.012 261.297 83.668C263.281 82.26 264.785 80.276 265.809 77.716C266.897 75.156 267.441 72.116 267.441 68.596C267.441 63.22 266.257 58.996 263.889 55.924C261.585 52.852 258.385 51.316 254.289 51.316C251.601 51.316 249.265 52.02 247.281 53.428C245.361 54.772 243.857 56.756 242.769 59.38C241.745 61.94 241.233 65.012 241.233 68.596C241.233 73.908 242.385 78.1 244.689 81.172C246.993 84.18 250.193 85.684 254.289 85.684ZM294.641 44.5H303.761V58.228L302.417 56.884C304.209 52.596 306.449 49.268 309.137 46.9C311.889 44.532 315.217 43.348 319.121 43.348C321.873 43.348 324.241 43.956 326.225 45.172C328.273 46.388 329.873 48.052 331.025 50.164C332.241 52.212 333.009 54.58 333.329 57.268L331.601 56.98C332.945 53.012 335.313 49.748 338.705 47.188C342.097 44.628 345.873 43.348 350.033 43.348C353.169 43.348 355.793 44.052 357.905 45.46C360.081 46.868 361.713 48.98 362.801 51.796C363.953 54.548 364.529 57.908 364.529 61.876V92.5H355.313V62.932C355.313 59.284 354.545 56.5 353.009 54.58C351.473 52.596 349.265 51.604 346.385 51.604C344.273 51.604 342.257 52.276 340.337 53.62C338.481 54.9 336.977 56.756 335.825 59.188C334.673 61.556 334.097 64.34 334.097 67.54V92.5H325.073V63.892C325.073 59.924 324.305 56.884 322.769 54.772C321.233 52.66 319.025 51.604 316.145 51.604C314.033 51.604 312.017 52.276 310.097 53.62C308.241 54.9 306.737 56.756 305.585 59.188C304.433 61.556 303.857 64.34 303.857 67.54V92.5H294.641V44.5ZM385.035 44.5H394.155V58.708L392.619 57.364C394.603 53.012 397.227 49.588 400.491 47.092C403.819 44.596 407.371 43.348 411.147 43.348C414.795 43.348 417.899 44.436 420.459 46.612C423.083 48.724 425.067 51.668 426.411 55.444C427.819 59.156 428.523 63.444 428.523 68.308C428.523 73.172 427.819 77.524 426.411 81.364C425.067 85.14 423.051 88.116 420.363 90.292C417.739 92.404 414.603 93.46 410.955 93.46C408.459 93.46 406.059 92.916 403.755 91.828C401.515 90.676 399.435 89.044 397.515 86.932C395.595 84.82 393.963 82.26 392.619 79.252L394.251 78.004V108.82H385.035V44.5ZM408.267 85.3C410.443 85.3 412.363 84.66 414.027 83.38C415.691 82.1 416.971 80.18 417.867 77.62C418.763 75.06 419.211 71.956 419.211 68.308C419.211 62.868 418.251 58.708 416.331 55.828C414.411 52.948 411.787 51.508 408.459 51.508C406.411 51.508 404.235 52.212 401.931 53.62C399.691 55.028 397.771 57.012 396.171 59.572C394.635 62.132 393.867 65.076 393.867 68.404C393.867 71.668 394.603 74.612 396.075 77.236C397.611 79.796 399.499 81.78 401.739 83.188C404.043 84.596 406.219 85.3 408.267 85.3ZM445.498 25.3H456.922V36.82H445.498V25.3ZM446.554 44.5H455.77V92.5H446.554V44.5ZM493.942 92.5C489.526 92.5 486.198 91.604 483.958 89.812C481.782 87.956 480.694 85.108 480.694 81.268V33.364L489.91 27.22V79.252C489.91 81.108 490.326 82.452 491.158 83.284C492.054 84.116 493.686 84.532 496.054 84.532H503.446V92.5H493.942ZM471.286 44.5H500.758V52.18H471.286V44.5ZM537.32 93.652C532.968 93.652 529.064 92.596 525.608 90.484C522.216 88.372 519.56 85.428 517.64 81.652C515.784 77.812 514.856 73.46 514.856 68.596C514.856 63.668 515.784 59.316 517.64 55.54C519.56 51.7 522.216 48.724 525.608 46.612C529.064 44.436 532.968 43.348 537.32 43.348C541.736 43.348 545.64 44.436 549.032 46.612C552.488 48.724 555.144 51.7 557 55.54C558.92 59.316 559.88 63.668 559.88 68.596C559.88 73.46 558.92 77.812 557 81.652C555.144 85.428 552.488 88.372 549.032 90.484C545.64 92.596 541.736 93.652 537.32 93.652ZM537.32 85.684C540.008 85.684 542.344 85.012 544.328 83.668C546.312 82.26 547.816 80.276 548.84 77.716C549.928 75.156 550.472 72.116 550.472 68.596C550.472 63.22 549.288 58.996 546.92 55.924C544.616 52.852 541.416 51.316 537.32 51.316C534.632 51.316 532.296 52.02 530.312 53.428C528.392 54.772 526.888 56.756 525.8 59.38C524.776 61.94 524.264 65.012 524.264 68.596C524.264 73.908 525.416 78.1 527.72 81.172C530.024 84.18 533.224 85.684 537.32 85.684Z" fill="white"/>
</svg>
