<svg width="44" height="27" viewBox="0 0 44 27" fill="none" xmlns="http://www.w3.org/2000/svg">
<g clip-path="url(#clip0_1785_24)">
<path d="M0.736328 4.6301C0.736328 3.482 0.736328 2.90793 0.958201 2.46942C1.15315 2.08369 1.4645 1.77008 1.84752 1.57353C2.28276 1.3501 2.85263 1.3501 3.99236 1.3501H37.0243C38.1641 1.3501 38.7339 1.3501 39.1692 1.57353C39.552 1.77008 39.8633 2.08369 40.0585 2.46942C40.2804 2.90793 40.2804 3.482 40.2804 4.6301V23.0379C40.2804 24.1859 40.2804 24.7599 40.0585 25.1986C39.8633 25.5842 39.552 25.8978 39.1692 26.0944C38.7339 26.3179 38.1641 26.3179 37.0243 26.3179H3.99236C2.85263 26.3179 2.28276 26.3179 1.84752 26.0944C1.4645 25.8978 1.15315 25.5842 0.958201 25.1986C0.736328 24.7599 0.736328 24.1859 0.736328 23.0379V4.6301Z" fill="#3DAE2B"/>
<path d="M36.1051 18.4088L34.9135 17.2107L33.0908 15.3811L33.3278 15.3276C34.9512 14.9863 36.0431 13.9555 36.0431 11.9789C36.0431 9.67186 34.123 8.38897 32.2027 8.38467H28.1942C28.1565 8.38692 28.1189 8.39573 28.0834 8.41357C28.0545 8.4314 28.0413 8.47609 28.0413 8.55194V18.6095C28.0545 18.6787 28.0745 18.721 28.1033 18.7345C28.1498 18.7523 28.1964 18.7546 28.2428 18.7456H28.2673L29.9327 18.5024C29.9592 18.5002 29.988 18.4912 30.0125 18.4778C30.0435 18.46 30.0544 18.4133 30.0544 18.3417V10.3613H32.2802C33.2414 10.3613 34.0787 11.0484 34.0787 11.9609C34.0787 12.8735 33.4098 13.3352 32.4596 13.5695C31.5073 13.8016 31.049 14.4998 31.0445 15.2362C31.0532 15.7425 31.2459 16.2267 31.5871 16.5994C31.7533 16.8157 31.9348 17.0189 32.1318 17.2107C32.1363 17.215 32.1407 17.2196 32.1474 17.2241L34.8139 19.9526C34.9799 20.0596 35.1749 20.1154 35.3721 20.1154C35.9324 20.1176 36.3863 19.667 36.3952 19.1047C36.3996 18.8438 36.2956 18.5916 36.1073 18.4133M14.465 15.7983C14.2967 15.6913 14.1018 15.6333 13.9024 15.6333C13.6257 15.6333 13.3643 15.747 13.1738 15.9479C13.1163 16.0193 12.9855 16.1421 12.9347 16.1911C12.2414 16.8403 11.3268 17.2017 10.3767 17.2017C8.29483 17.1995 6.6071 15.4994 6.60487 13.4C6.61155 11.3074 8.29928 9.61385 10.3767 9.61385C11.0676 9.61385 12.011 9.73889 12.8416 10.5331C12.8505 10.5421 12.8594 10.5486 12.8704 10.5532C12.9147 10.5755 12.9635 10.58 13.0098 10.5665L14.7905 10.3033C14.9701 10.2766 14.8836 10.1382 14.8836 10.1382C14.5668 9.55808 13.2469 7.5212 10.1994 7.55011C6.97918 7.58147 4.56955 10.1249 4.53857 13.4334C4.54303 14.8235 5.03698 16.1665 5.93378 17.2218C7.04133 18.5381 8.66469 19.2989 10.3767 19.3034C11.98 19.2989 13.5082 18.6386 14.6156 17.4694C14.6775 17.3913 14.7308 17.3087 14.7773 17.2218C14.8814 17.0523 14.9367 16.8559 14.9411 16.6574C14.9367 16.3116 14.7595 15.9902 14.4716 15.8028M25.4878 7.99639C24.6549 7.99639 24.1788 8.58987 23.8112 9.36846L21.5366 14.2434C21.5366 14.2434 21.5145 14.3014 21.4791 14.3014C21.4437 14.3014 21.4171 14.2434 21.4171 14.2434L19.4725 10.9101L18.8723 9.87276C18.8368 9.81475 18.8014 9.78133 18.766 9.77908C18.7484 9.77682 18.7283 9.77682 18.7107 9.77908L16.0529 10.1561C16.0286 10.1628 16.0043 10.1716 15.982 10.185C15.9578 10.2008 15.9444 10.2475 15.9444 10.3211V19.107C15.9578 19.6558 16.4051 20.0953 16.9499 20.0953C17.4947 20.0932 17.9421 19.6558 17.9577 19.107V12.3559L20.8523 17.2241L21.4724 18.2616C21.4835 18.2837 21.5034 18.2972 21.5256 18.2995C21.5544 18.2995 21.572 18.2616 21.572 18.2616L22.0749 17.2241L24.9916 11.2694V19.0668C25.0027 19.1338 25.0226 19.1763 25.0558 19.1919C25.0934 19.2052 25.1333 19.2097 25.1732 19.2052H25.1865L26.8674 18.9621C26.9008 18.9598 26.9318 18.9487 26.9605 18.9352C26.9937 18.9151 27.0004 18.8729 27.0049 18.8104V9.53143C26.9893 8.68806 26.3137 8.00972 25.4766 7.99639" fill="white"/>
</g>
<defs>
<clipPath id="clip0_1785_24">
<rect width="44" height="27" fill="white"/>
</clipPath>
</defs>
</svg>
