<svg width="44" height="27" viewBox="0 0 44 27" fill="none" xmlns="http://www.w3.org/2000/svg">
<path d="M39.4979 1.23682H2.50218C1.89289 1.23682 1.39893 1.73695 1.39893 2.35385V24.6459C1.39893 25.2628 1.89289 25.7629 2.50218 25.7629H39.4979C40.1073 25.7629 40.6012 25.2628 40.6012 24.6459V2.35385C40.6012 1.73695 40.1073 1.23682 39.4979 1.23682Z" fill="#FF0705"/>
<path d="M29.8778 14.2831V20.9826H26.6454V14.7321C26.6732 14.4717 26.6444 14.2082 26.561 13.9603C26.4776 13.7123 26.3416 13.4858 26.1625 13.2967C25.9835 13.1075 25.7658 12.9603 25.5246 12.8654C25.2835 12.7705 25.0248 12.7301 24.7665 12.7471C23.5997 12.7471 22.7711 13.4442 22.7711 14.992V20.8998H19.5386V5.70508H22.7711V11.0929C23.1499 10.6352 23.6315 10.2762 24.1757 10.0459C24.7199 9.81562 25.3107 9.72088 25.8985 9.76962C28.069 9.76962 29.9246 11.3411 29.9246 14.2831" fill="white"/>
<path d="M13.0628 9.75782C11.9337 9.75549 10.8293 10.0924 9.88931 10.7258C8.94935 11.3593 8.21615 12.2608 7.78245 13.3164C7.34876 14.3719 7.23409 15.534 7.45297 16.6556C7.67182 17.7771 8.21436 18.8077 9.01196 19.6169C9.80954 20.4261 10.8264 20.9777 11.9336 21.2016C13.0409 21.4253 14.1888 21.3117 15.2322 20.8747C16.2756 20.4377 17.1675 19.6973 17.7951 18.7468C18.4226 17.7964 18.7576 16.6788 18.7576 15.5356C18.7576 14.0053 18.158 12.5375 17.0904 11.4543C16.0227 10.3711 14.5743 9.76095 13.0628 9.75782ZM13.0628 18.0996C12.5587 18.1019 12.0652 17.9525 11.6451 17.6704C11.2249 17.3883 10.8971 16.9861 10.7031 16.515C10.5091 16.0438 10.4578 15.525 10.5556 15.0242C10.6533 14.5235 10.8959 14.0634 11.2524 13.7025C11.6088 13.3416 12.0632 13.096 12.5578 12.997C13.0524 12.898 13.5648 12.95 14.0301 13.1464C14.4954 13.3428 14.8926 13.6748 15.1713 14.1001C15.4499 14.5255 15.5974 15.0252 15.5951 15.5356C15.5951 16.2156 15.3284 16.8678 14.8535 17.3486C14.3786 17.8295 13.7345 18.0996 13.0628 18.0996Z" fill="white"/>
<path d="M30.5679 19.2236C30.5656 18.8113 30.6843 18.4077 30.909 18.0639C31.134 17.7201 31.4546 17.4517 31.8304 17.2929C32.2062 17.134 32.6201 17.0919 33.0195 17.1717C33.419 17.2516 33.786 17.4499 34.074 17.7414C34.362 18.033 34.5578 18.4045 34.6367 18.809C34.7155 19.2135 34.6738 19.6327 34.517 20.013C34.3601 20.3935 34.0951 20.7183 33.7555 20.9459C33.4159 21.1734 33.0172 21.2936 32.61 21.2913C32.0694 21.2882 31.5517 21.0695 31.1694 20.6822C30.7871 20.2952 30.571 19.771 30.5679 19.2236Z" fill="white"/>
<path d="M30.6836 11.3778V6.23815C30.6866 6.09917 30.7434 5.96693 30.8415 5.86977C30.9398 5.77259 31.0716 5.71822 31.2087 5.71826H34.0678C34.1352 5.71826 34.2021 5.73172 34.2644 5.75784C34.3266 5.78397 34.3832 5.82229 34.431 5.87056C34.4786 5.91883 34.5164 5.97609 34.5423 6.03918C34.568 6.10224 34.5813 6.16988 34.5813 6.23815V11.437L33.9979 15.856C33.9811 15.9823 33.92 16.0984 33.8257 16.183C33.7314 16.2676 33.6103 16.3151 33.4844 16.3168H31.8156C31.6889 16.3176 31.5664 16.271 31.4718 16.186C31.3769 16.1009 31.3165 15.9834 31.3023 15.856L30.7186 11.437C30.7186 11.437 30.7186 11.4369 30.7186 11.3778" fill="white"/>
</svg>
